<svg width="45" height="53" viewBox="0 0 45 53" fill="none" xmlns="http://www.w3.org/2000/svg">
<rect x="0.822144" y="1.39081" width="43.5535" height="50.2339" rx="5.5" fill="white" stroke="#E8EBF0"/>
<path fill-rule="evenodd" clip-rule="evenodd" d="M29.0342 21.8502C29.0342 22.159 28.9299 22.4551 28.7442 22.6735C28.5586 22.8919 28.3067 23.0146 28.0441 23.0146H27.5491V33.4942C27.5491 34.1118 27.3405 34.7042 26.9691 35.1409C26.5978 35.5777 26.0941 35.823 25.5689 35.823H19.6285C19.1033 35.823 18.5996 35.5777 18.2283 35.1409C17.8569 34.7042 17.6483 34.1118 17.6483 33.4942V23.0146H17.1533C16.8907 23.0146 16.6389 22.8919 16.4532 22.6735C16.2675 22.4551 16.1632 22.159 16.1632 21.8502V20.6857C16.1632 20.3769 16.2675 20.0808 16.4532 19.8624C16.6389 19.644 16.8907 19.5213 17.1533 19.5213H20.6186C20.6186 19.2125 20.7229 18.9163 20.9085 18.698C21.0942 18.4796 21.346 18.3569 21.6086 18.3569H23.5888C23.8514 18.3569 24.1032 18.4796 24.2889 18.698C24.4746 18.9163 24.5789 19.2125 24.5789 19.5213H28.0441C28.3067 19.5213 28.5586 19.644 28.7442 19.8624C28.9299 20.0808 29.0342 20.3769 29.0342 20.6857V21.8502ZM18.7552 23.0146L18.6384 23.0833V33.4942C18.6384 33.803 18.7427 34.0992 18.9284 34.3176C19.1141 34.5359 19.3659 34.6586 19.6285 34.6586H25.5689C25.8315 34.6586 26.0834 34.5359 26.269 34.3176C26.4547 34.0992 26.559 33.803 26.559 33.4942V23.0833L26.4422 23.0146H18.7552Z" fill="#16192C"/>
<path d="M20.1237 24.7612C20.255 24.7612 20.3809 24.8225 20.4737 24.9317C20.5666 25.0409 20.6187 25.189 20.6187 25.3434V32.3298C20.6187 32.4842 20.5666 32.6323 20.4737 32.7415C20.3809 32.8507 20.255 32.912 20.1237 32.912C19.9924 32.912 19.8665 32.8507 19.7737 32.7415C19.6808 32.6323 19.6287 32.4842 19.6287 32.3298V25.3434C19.6287 25.189 19.6808 25.0409 19.7737 24.9317C19.8665 24.8225 19.9924 24.7612 20.1237 24.7612ZM22.5989 24.7612C22.7302 24.7612 22.8561 24.8225 22.9489 24.9317C23.0418 25.0409 23.0939 25.189 23.0939 25.3434V32.3298C23.0939 32.4842 23.0418 32.6323 22.9489 32.7415C22.8561 32.8507 22.7302 32.912 22.5989 32.912C22.4676 32.912 22.3417 32.8507 22.2489 32.7415C22.156 32.6323 22.1039 32.4842 22.1039 32.3298V25.3434C22.1039 25.189 22.156 25.0409 22.2489 24.9317C22.3417 24.8225 22.4676 24.7612 22.5989 24.7612ZM25.5691 25.3434C25.5691 25.189 25.517 25.0409 25.4241 24.9317C25.3313 24.8225 25.2054 24.7612 25.0741 24.7612C24.9428 24.7612 24.8169 24.8225 24.724 24.9317C24.6312 25.0409 24.5791 25.189 24.5791 25.3434V32.3298C24.5791 32.4842 24.6312 32.6323 24.724 32.7415C24.8169 32.8507 24.9428 32.912 25.0741 32.912C25.2054 32.912 25.3313 32.8507 25.4241 32.7415C25.517 32.6323 25.5691 32.4842 25.5691 32.3298V25.3434Z" fill="#16192C"/>
</svg>
