<svg width="45" height="53" viewBox="0 0 45 53" fill="none" xmlns="http://www.w3.org/2000/svg">
<rect x="0.673584" y="1.39081" width="43.5535" height="50.2339" rx="5.5" fill="white" stroke="#E8EBF0"/>
<path d="M21.9553 34.6587C18.1277 34.6587 15.0247 31.0094 15.0247 26.5078C15.0247 22.0062 18.1277 18.357 21.9553 18.357C25.7829 18.357 28.8858 22.0062 28.8858 26.5078C28.8858 31.0094 25.7829 34.6587 21.9553 34.6587ZM21.9553 35.8231C26.3297 35.8231 29.8759 31.6525 29.8759 26.5078C29.8759 21.3631 26.3297 17.1926 21.9553 17.1926C17.5809 17.1926 14.0347 21.3631 14.0347 26.5078C14.0347 31.6525 17.5809 35.8231 21.9553 35.8231Z" fill="#16192C"/>
<path d="M22.8768 24.8635L20.6085 25.1979L20.5273 25.6413L20.974 25.7368C21.264 25.8187 21.322 25.9415 21.2582 26.2827L20.5273 30.3217C20.3358 31.3656 20.6317 31.8568 21.3278 31.8568C21.8673 31.8568 22.4939 31.5634 22.7781 31.1609L22.8652 30.6765C22.6679 30.8812 22.3779 30.963 22.1864 30.963C21.9138 30.963 21.8151 30.7379 21.8847 30.3422L22.8768 24.8635Z" fill="#16192C"/>
<path d="M22.9454 22.4324C22.9454 23.0755 22.5021 23.5968 21.9553 23.5968C21.4085 23.5968 20.9652 23.0755 20.9652 22.4324C20.9652 21.7893 21.4085 21.268 21.9553 21.268C22.5021 21.268 22.9454 21.7893 22.9454 22.4324Z" fill="#16192C"/>
</svg>
