<svg width="46" height="53" viewBox="0 0 46 53" fill="none" xmlns="http://www.w3.org/2000/svg">
<rect x="1.24792" y="1.39081" width="43.5535" height="50.2338" rx="5.5" fill="white" stroke="#E8EBF0"/>
<path d="M27.6242 17.3636C27.6702 17.3094 27.7248 17.2664 27.7849 17.237C27.8451 17.2077 27.9095 17.1926 27.9747 17.1926C28.0398 17.1926 28.1042 17.2077 28.1644 17.237C28.2245 17.2664 28.2792 17.3094 28.3251 17.3636L31.2954 20.8568C31.3415 20.9109 31.3781 20.9752 31.403 21.0459C31.428 21.1166 31.4408 21.1924 31.4408 21.269C31.4408 21.3456 31.428 21.4214 31.403 21.4922C31.3781 21.5629 31.3415 21.6271 31.2954 21.6812L21.3946 33.3253C21.3471 33.3808 21.2905 33.4243 21.2283 33.4534L16.2779 35.7822C16.1879 35.8245 16.0894 35.8349 15.9944 35.812C15.8995 35.7891 15.8124 35.7339 15.7439 35.6533C15.6754 35.5728 15.6284 35.4703 15.609 35.3587C15.5895 35.247 15.5983 35.1311 15.6343 35.0253L17.6145 29.2033C17.6392 29.1301 17.6762 29.0635 17.7234 29.0077L27.6242 17.3636ZM26.6945 20.1046L28.9647 22.7746L30.2449 21.269L27.9747 18.599L26.6945 20.1046ZM28.2647 23.5978L25.9945 20.9279L19.559 28.4965V28.8377H20.054C20.1853 28.8377 20.3112 28.899 20.4041 29.0082C20.4969 29.1174 20.5491 29.2655 20.5491 29.4199V30.0021H21.0441C21.1754 30.0021 21.3013 30.0634 21.3942 30.1726C21.487 30.2818 21.5392 30.4299 21.5392 30.5843V31.1665H21.8292L28.2647 23.5978ZM18.6006 29.6236L18.4957 29.7471L16.9828 34.1963L20.7659 32.417L20.8708 32.2936C20.7764 32.2521 20.695 32.1777 20.6375 32.0803C20.58 31.9829 20.5491 31.8672 20.5491 31.7487V31.1665H20.054C19.9227 31.1665 19.7968 31.1051 19.704 30.996C19.6112 30.8868 19.559 30.7387 19.559 30.5843V30.0021H19.064C18.9631 30.002 18.8648 29.9657 18.782 29.8981C18.6992 29.8304 18.6359 29.7347 18.6006 29.6236Z" fill="#16192C"/>
</svg>
